<?xml version="1.0" encoding="utf-8"?>
<!DOCTYPE svg PUBLIC "-//W3C//DTD SVG 1.1//EN" "http://www.w3.org/Graphics/SVG/1.1/DTD/svg11.dtd">
<svg fill="currentColor" version="1.1" xmlns="http://www.w3.org/2000/svg" xmlns:xlink="http://www.w3.org/1999/xlink" x="0px" y="0px" viewBox="250 0 500 1000" xml:space="preserve">
<g><g><path d="M571.7,357.5H430c0,0-94.1,176.6-94.1,328.2c0,80.5,34.2,214.1,34.6,214.1c24.5,97.7,42,90.1,134.9,90.1c85.6,0,110,7.7,129.3-90c-0.4,0.4,29.4-132.2,29.4-214.1C664.1,520.6,571.7,357.5,571.7,357.5L571.7,357.5z M565.9,246.5c0,0,22.7-75.2,22.7-121.4C588.6,79,565.1,10,502.4,10c-62.8,0-91.7,68.3-91.7,114.5c0,46.2,24.8,122,24.8,122H565.9z M560.3,318.9v-38.6H439.7v38.6L560.3,318.9L560.3,318.9z"/></g></g>
</svg>